<svg width="181" height="27" viewBox="0 0 181 27" fill="none" xmlns="http://www.w3.org/2000/svg">
<g clip-path="url(#clip0_4390_24342)">
<path d="M6.69339 14.3064L16.8945 3.75011C17.5837 3.03999 18.5162 2.64137 19.4883 2.64137C20.4603 2.64137 21.3928 3.03999 22.082 3.75011L22.8748 4.57136L24.464 2.92511L23.6712 2.10011C22.5595 0.951014 21.0533 0.305664 19.4828 0.305664C17.9124 0.305664 16.4061 0.951014 15.2945 2.10011L5.10059 12.6601L6.69339 14.3064Z" fill="#72A2B3"/>
<path d="M20.312 7.22625L18.7229 5.58L8.51809 16.1512C7.82875 16.8648 6.89399 17.2655 5.91946 17.2652C4.94492 17.2648 4.01044 16.8635 3.32158 16.1494C2.63272 15.4353 2.24591 14.467 2.24625 13.4574C2.24659 12.4479 2.63405 11.4798 3.32339 10.7662L12.1272 1.64625L10.538 0L1.73421 9.12C1.17375 9.68712 0.727493 10.3638 0.421279 11.1108C0.115064 11.8579 -0.0450197 12.6604 -0.049699 13.472C-0.0543784 14.2836 0.0964395 15.0881 0.394018 15.8389C0.691597 16.5897 1.13002 17.2718 1.6839 17.8458C2.23777 18.4199 2.89609 18.8743 3.62072 19.1829C4.34534 19.4915 5.12187 19.6481 5.90533 19.6436C6.68878 19.6391 7.46359 19.4736 8.18487 19.1567C8.90615 18.8398 9.55957 18.3778 10.1073 17.7975L20.312 7.22625ZM30.4698 9.12C29.3577 7.97181 27.8516 7.3271 26.2814 7.3271C24.7113 7.3271 23.2052 7.97181 22.0931 9.12L11.8883 19.6912L13.4775 21.3375L23.6823 10.7662C24.1963 10.2348 24.8509 9.87306 25.5633 9.72676C26.2757 9.58045 27.014 9.65614 27.6849 9.94425C28.3558 10.2324 28.9292 10.72 29.3327 11.3455C29.7363 11.971 29.9518 12.7064 29.9521 13.4587C29.954 13.9599 29.8588 14.4565 29.6723 14.9189C29.4858 15.3814 29.2116 15.8004 28.8661 16.1512L20.0731 25.2712L21.6659 26.9175L30.4698 17.7975C31.579 16.6459 32.202 15.0856 32.202 13.4587C32.202 11.8319 31.579 10.2716 30.4698 9.12V9.12Z" fill="#72A2B3"/>
<path d="M25.5097 12.6113L15.3049 23.1788C14.6148 23.8915 13.6801 24.2916 12.7057 24.2916C11.7313 24.2916 10.7967 23.8915 10.1066 23.1788L9.31379 22.3538L7.72461 24.0001L8.51739 24.8251C9.6295 25.9733 11.1356 26.618 12.7057 26.618C14.2759 26.618 15.782 25.9733 16.8941 24.8251L27.0988 14.2501L25.5097 12.6113Z" fill="#72A2B3"/>
<path d="M41.5218 16.3011C41.6262 16.9281 41.9561 17.4909 42.4449 17.8761C43.0057 18.278 43.6788 18.477 44.3599 18.4423C45.0082 18.4851 45.65 18.287 46.1699 17.8836C46.3772 17.705 46.5423 17.4797 46.6527 17.225C46.7631 16.9702 46.8159 16.6927 46.807 16.4136C46.8143 16.1525 46.7557 15.894 46.6369 15.6636C46.5179 15.4545 46.3545 15.2762 46.1591 15.1423C45.926 14.982 45.6726 14.8558 45.4061 14.7673L44.3997 14.4523L43.4404 14.1823C42.9086 14.0364 42.3911 13.8393 41.8947 13.5936C41.4685 13.3848 41.0745 13.1119 40.7254 12.7836C40.4141 12.4841 40.1674 12.1199 40.0014 11.7148C39.8244 11.2692 39.7381 10.7904 39.748 10.3086C39.7429 9.77473 39.8543 9.24658 40.0738 8.76358C40.2855 8.29353 40.5989 7.88033 40.9897 7.55608C41.4196 7.19965 41.911 6.93113 42.4377 6.76483C43.0532 6.56279 43.6962 6.46528 44.3418 6.47608C45.6716 6.47608 46.725 6.80108 47.5021 7.45108C47.8872 7.77237 48.2066 8.17002 48.4416 8.62075C48.6766 9.07149 48.8224 9.56626 48.8704 10.0761L46.6984 10.2598C46.591 9.74358 46.3116 9.28295 45.9093 8.95858C45.4216 8.62083 44.8406 8.45753 44.2549 8.49358C43.7023 8.45993 43.1557 8.62703 42.7092 8.96608C42.5309 9.11004 42.3876 9.29526 42.2908 9.50689C42.194 9.71853 42.1464 9.95071 42.1517 10.1848C42.1428 10.4344 42.1991 10.6819 42.3146 10.9011C42.4311 11.1034 42.5908 11.2754 42.7816 11.4036C43.0141 11.5603 43.2646 11.6862 43.5273 11.7786C43.8205 11.8911 44.1536 12.0111 44.5228 12.1348L45.4423 12.4311C46.0143 12.6186 46.5319 12.8136 46.9953 13.0161C47.4214 13.2038 47.818 13.4566 48.1718 13.7661C48.4907 14.0457 48.7454 14.3954 48.9175 14.7898C49.1038 15.2552 49.1926 15.7563 49.1781 16.2598C49.1842 16.8485 49.0604 17.4308 48.8161 17.9623C48.5806 18.4729 48.2365 18.9216 47.8098 19.2748C47.3512 19.6505 46.8296 19.9352 46.2713 20.1148C45.6351 20.3198 44.9718 20.4198 44.3056 20.4111C43.1275 20.4566 41.9652 20.1182 40.9825 19.4436C40.5237 19.0996 40.1395 18.66 39.8546 18.1531C39.5697 17.6461 39.3903 17.0829 39.3281 16.4998L41.5218 16.3011ZM58.3367 6.51358C59.2473 6.50137 60.1514 6.67466 60.9974 7.02358C61.7702 7.34419 62.4676 7.83267 63.0427 8.45608C63.6199 9.09174 64.0668 9.84179 64.3568 10.6611C64.6752 11.5617 64.8334 12.5146 64.8238 13.4736C64.8368 14.4502 64.6684 15.4203 64.3278 16.3311C64.0104 17.1589 63.5309 17.9096 62.9197 18.5361L64.6428 20.6248V21.2736H62.4708L61.2653 19.7473C60.8286 19.9638 60.3712 20.1322 59.9006 20.2498C59.3926 20.3623 58.8743 20.4177 58.3548 20.4148C57.4338 20.4206 56.5209 20.237 55.6688 19.8748C54.9004 19.5522 54.2079 19.0624 53.638 18.4386C53.0679 17.8058 52.6282 17.0594 52.3457 16.2448C52.0335 15.3531 51.8778 14.4108 51.8859 13.4623C51.8769 12.5077 52.0325 11.559 52.3457 10.6611C52.63 9.84375 53.0736 9.09574 53.6488 8.46358C54.2225 7.84001 54.9171 7.34926 55.6869 7.02358C56.528 6.67052 57.4293 6.49705 58.3367 6.51358V6.51358ZM58.3187 8.52358C57.721 8.51404 57.1287 8.64212 56.5847 8.89858C56.0848 9.13778 55.6432 9.4902 55.2923 9.92983C54.9275 10.3908 54.6521 10.9205 54.4814 11.4898C54.2926 12.1237 54.1998 12.784 54.2063 13.4473C54.2 14.1164 54.2965 14.7822 54.4923 15.4198C54.6677 15.9943 54.9451 16.5298 55.3104 16.9986C55.6607 17.4436 56.1021 17.8022 56.6028 18.0486C57.1463 18.3069 57.7389 18.435 58.3367 18.4236C58.9341 18.4296 59.5256 18.3017 60.0707 18.0486C60.5696 17.8145 61.0113 17.4672 61.3631 17.0323C61.7326 16.5707 62.0106 16.038 62.1812 15.4648C62.3792 14.8122 62.477 14.1314 62.4708 13.4473C62.4763 12.7731 62.3786 12.1023 62.1812 11.4598C62.0082 10.89 61.7303 10.3603 61.3631 9.89983C61.0076 9.46495 60.5638 9.11667 60.0635 8.87983C59.514 8.63055 58.9184 8.50895 58.3187 8.52358V8.52358ZM73.3561 18.5173C73.7586 18.543 74.1616 18.4771 74.5368 18.3242C74.912 18.1713 75.2504 17.9351 75.5281 17.6323C76.0422 17.0448 76.2992 16.1423 76.2992 14.9248V6.77233H78.5545V14.9998C78.5723 15.8427 78.4498 16.6825 78.1925 17.4823C77.9845 18.123 77.6335 18.7037 77.168 19.1773C76.7062 19.6303 76.1464 19.962 75.5354 20.1448C74.114 20.552 72.6127 20.552 71.1914 20.1448C70.5826 19.9619 70.0251 19.6301 69.566 19.1773C69.1016 18.7028 68.7508 18.1223 68.5415 17.4823C68.2843 16.6825 68.1619 15.8427 68.1795 14.9998V6.77233H70.442V14.9248C70.442 16.1398 70.7003 17.0423 71.2167 17.6323C71.4905 17.9311 71.8235 18.1648 72.1928 18.3176C72.5621 18.4704 72.959 18.5385 73.3561 18.5173V18.5173ZM80.8133 19.4998L85.3926 6.78733H88.7882L93.3168 19.4998V20.1373H91.0905L89.7946 16.3198H84.2089L82.8985 20.1373H80.7989L80.8133 19.4998ZM84.8895 14.3248H89.1502L88.4479 12.2023C88.1728 11.3736 87.952 10.7023 87.7818 10.1736C87.6117 9.64483 87.4669 9.19483 87.333 8.79733H86.7791L86.5619 9.43108C86.4895 9.64108 86.4099 9.87733 86.3194 10.1361C86.2289 10.3948 86.1311 10.6948 86.0225 11.0323C85.9139 11.3698 85.7836 11.7561 85.6279 12.2023L84.8895 14.3248ZM105.965 20.1373H103.793L99.8582 14.8873H98.4102V20.1373H96.1802V6.77233H100.369C100.996 6.77119 101.623 6.81756 102.244 6.91108C102.821 6.99775 103.371 7.21823 103.855 7.55608C104.873 8.25108 105.382 9.29858 105.382 10.6986C105.392 11.2412 105.303 11.7808 105.118 12.2886C104.962 12.7161 104.727 13.1083 104.427 13.4436C104.14 13.7587 103.803 14.02 103.431 14.2161C103.058 14.4138 102.663 14.5636 102.255 14.6623L105.965 19.4998V20.1373ZM98.4029 12.8773H100.361C101.071 12.9165 101.778 12.7475 102.399 12.3898C102.65 12.2165 102.851 11.977 102.982 11.6962C103.113 11.4153 103.169 11.1033 103.145 10.7923C103.175 10.4837 103.119 10.1727 102.986 9.89532C102.852 9.61792 102.645 9.38546 102.389 9.22483C101.76 8.90117 101.062 8.74887 100.361 8.78233H98.4029V12.8773ZM108.839 6.77233H117.194V8.81983H111.04V12.3186H116.753V14.3286H111.051V18.0786H117.321V20.1373H108.839V6.77233ZM122.317 16.3011C122.421 16.9281 122.751 17.4909 123.24 17.8761C123.801 18.2775 124.474 18.4764 125.155 18.4423C125.803 18.4851 126.445 18.287 126.965 17.8836C127.172 17.705 127.337 17.4797 127.447 17.225C127.558 16.9702 127.611 16.6927 127.602 16.4136C127.609 16.1525 127.55 15.894 127.432 15.6636C127.313 15.4545 127.149 15.2762 126.954 15.1423C126.721 14.982 126.467 14.8558 126.201 14.7673L125.195 14.4523L124.224 14.1748C123.693 14.0289 123.175 13.8318 122.679 13.5861C122.252 13.3773 121.858 13.1044 121.509 12.7761C121.198 12.4766 120.951 12.1124 120.785 11.7073C120.607 11.2353 120.521 10.731 120.533 10.2241C120.546 9.71722 120.656 9.21805 120.858 8.75608C121.071 8.2868 121.384 7.87387 121.774 7.54858C122.204 7.19215 122.695 6.92363 123.222 6.75733C123.837 6.55529 124.48 6.45778 125.126 6.46858C126.456 6.46858 127.51 6.79358 128.29 7.44358C128.674 7.76506 128.993 8.16283 129.227 8.61357C129.462 9.06432 129.607 9.55898 129.654 10.0686L127.482 10.2523C127.377 9.73715 127.1 9.27666 126.7 8.95108C126.213 8.61282 125.632 8.44947 125.046 8.48608C124.493 8.45243 123.947 8.61953 123.5 8.95858C123.323 9.10293 123.18 9.28832 123.084 9.49993C122.988 9.71154 122.941 9.94352 122.947 10.1773C122.936 10.4266 122.992 10.674 123.106 10.8936C123.222 11.0959 123.382 11.2679 123.573 11.3961C123.805 11.5528 124.056 11.6787 124.319 11.7711C124.612 11.8836 124.945 12.0036 125.318 12.1273L126.233 12.4236C126.808 12.6111 127.326 12.8061 127.786 13.0086C128.213 13.1963 128.609 13.4491 128.963 13.7586C129.282 14.0382 129.537 14.3879 129.709 14.7823C129.895 15.2477 129.984 15.7488 129.969 16.2523C129.975 16.841 129.852 17.4233 129.607 17.9548C129.373 18.4662 129.029 18.9151 128.601 19.2673C128.142 19.6399 127.62 19.9221 127.062 20.0998C126.425 20.3048 125.761 20.4047 125.093 20.3961C123.915 20.441 122.753 20.1027 121.77 19.4286C121.314 19.0856 120.932 18.648 120.649 18.1438C120.365 17.6396 120.186 17.0797 120.123 16.4998L122.317 16.3011ZM133.184 6.77233H137.89C138.635 6.75239 139.379 6.86009 140.091 7.09108C140.632 7.26377 141.127 7.56269 141.539 7.96483C141.901 8.32956 142.172 8.78001 142.328 9.27733C142.494 9.80251 142.576 10.3523 142.571 10.9048C142.585 11.5275 142.472 12.1462 142.238 12.7198C142.026 13.2214 141.696 13.6598 141.278 13.9948C140.821 14.3455 140.302 14.6002 139.751 14.7448C139.087 14.9211 138.404 15.0056 137.72 14.9961H135.439V20.1373H133.191L133.184 6.77233ZM135.432 12.9898H137.586C137.95 12.9926 138.314 12.9587 138.672 12.8886C138.976 12.8295 139.268 12.7139 139.533 12.5473C139.777 12.3893 139.976 12.1666 140.109 11.9023C140.255 11.5921 140.326 11.2497 140.315 10.9048C140.326 10.5514 140.255 10.2005 140.109 9.88108C139.98 9.6134 139.784 9.38671 139.541 9.22483C139.28 9.05709 138.992 8.94135 138.69 8.88358C138.332 8.81289 137.968 8.77897 137.604 8.78233H135.414L135.432 12.9898ZM143.193 19.4998L147.776 6.78733H151.172L155.697 19.4998V20.1373H153.488L152.196 16.3198H146.589L145.296 20.1373H143.193V19.4998ZM147.273 14.3248H151.53L150.828 12.2023C150.553 11.3736 150.332 10.7023 150.165 10.1736L149.716 8.79733H149.144L148.927 9.43108C148.855 9.64108 148.775 9.87733 148.685 10.1361C148.594 10.3948 148.496 10.6948 148.388 11.0323C148.279 11.3698 148.149 11.7561 147.993 12.2023L147.273 14.3248ZM169.388 16.6011C169.183 17.124 168.915 17.6179 168.591 18.0711C168.255 18.5357 167.85 18.9431 167.393 19.2786C166.897 19.6395 166.348 19.9155 165.768 20.0961C165.101 20.303 164.407 20.4041 163.711 20.3961C162.812 20.4102 161.92 20.2328 161.09 19.8748C160.331 19.5464 159.646 19.0557 159.081 18.4348C158.514 17.7998 158.077 17.0522 157.796 16.2373C157.489 15.351 157.336 14.4153 157.344 13.4736C157.336 12.5319 157.489 11.5961 157.796 10.7098C158.078 9.89128 158.517 9.14092 159.089 8.50483C159.657 7.87734 160.345 7.37927 161.109 7.04233C161.941 6.67966 162.837 6.49962 163.74 6.51358C164.997 6.46732 166.236 6.82493 167.288 7.53733C168.223 8.19734 168.932 9.14806 169.311 10.2523L167.027 10.7173C166.743 10.0678 166.292 9.51145 165.724 9.10858C165.124 8.70584 164.419 8.50181 163.704 8.52358C163.118 8.51028 162.536 8.63868 162.006 8.89858C161.518 9.14672 161.089 9.50407 160.75 9.94483C160.394 10.4144 160.129 10.9503 159.968 11.5236C159.783 12.1544 159.692 12.8106 159.697 13.4698C159.691 14.1333 159.785 14.7937 159.976 15.4273C160.146 15.9949 160.42 16.5232 160.783 16.9836C161.137 17.4159 161.578 17.7627 162.075 17.9998C162.616 18.257 163.206 18.3852 163.802 18.3748C164.542 18.4056 165.271 18.1829 165.876 17.7411C166.41 17.3362 166.844 16.8069 167.143 16.1961L169.388 16.6011ZM172.425 6.77233H180.78V8.81983H174.626V12.3186H180.349V14.3286H174.637V18.0786H180.906V20.1373H172.425V6.77233Z" fill="#72A2B3"/>
</g>
<defs>
<clipPath id="clip0_4390_24342">
<rect width="181" height="27" fill="white"/>
</clipPath>
</defs>
</svg>
