<svg width="151" height="32" viewBox="0 0 151 32" fill="none" xmlns="http://www.w3.org/2000/svg">
<path fill-rule="evenodd" clip-rule="evenodd" d="M66.2789 7.86726C65.1817 7.22484 63.5519 6.91009 61.2945 6.91009C58.2069 6.91331 55.3403 7.5977 54.2569 8.02867C54.0113 8.11261 53.7504 8.33858 53.7443 8.72275V8.80991L54.0512 10.4499L54.0574 10.4821C54.1525 10.813 54.4134 10.9664 54.6482 10.9664H54.6528C54.7295 10.9599 54.7878 10.9438 54.8431 10.9293L55.3572 10.8001C56.703 10.445 58.7363 9.89944 61.0045 9.89944C62.3826 9.89944 63.3064 10.0286 63.9279 10.3062C64.9346 10.7146 64.9407 11.4103 64.9515 12.5611V14.2834C64.8364 14.2802 64.6415 14.2786 64.3422 14.2786C63.2297 14.2786 61.0429 14.3351 58.8944 14.7015C55.6134 15.2406 52.8987 16.0783 52.9171 20.9078C52.9171 27.0382 58.2422 27.0479 60.7989 27.0543C62.5329 27.0511 64.1366 26.7767 65.1847 26.5475C67.571 25.9551 68.1818 25.1465 68.1496 22.6139V12.4175C68.1496 10.8615 68.1557 8.92774 66.2774 7.86565L66.2789 7.86726ZM64.9668 23.6098C63.6962 24.0505 62.3058 24.2716 60.8326 24.2716V24.4169V24.2716C58.4785 24.2522 56.1828 23.9649 56.1782 20.7609C56.1935 18.2106 57.4672 17.9087 59.0786 17.5246L59.1906 17.4971C60.6239 17.1695 64.2271 17.1097 64.9684 17.1V23.6098H64.9668ZM94.7534 12.4159V22.6074C94.7841 25.1416 94.1749 25.9487 91.787 26.5411C90.7435 26.7719 89.1398 27.0463 87.4027 27.0479C84.846 27.0414 79.5225 27.0318 79.521 20.9029C79.501 16.0767 82.2157 15.2373 85.4967 14.6982C87.6451 14.3302 89.8335 14.2737 90.9445 14.2737C91.2453 14.2737 91.4387 14.2769 91.5584 14.2786V12.5579C91.5461 11.407 91.5384 10.713 90.5332 10.3046C89.9133 10.0237 88.9864 9.89783 87.6083 9.89783C85.3371 9.89783 83.3053 10.4402 81.961 10.7985L81.4484 10.9276C81.3932 10.9438 81.3333 10.9599 81.2566 10.9599C81.0203 10.9599 80.7609 10.8114 80.6642 10.4757L80.6566 10.4466L80.3497 8.80668V8.72113C80.3558 8.33697 80.6167 8.10777 80.8607 8.02706C81.9472 7.59609 84.8107 6.91009 87.8999 6.90847C90.1557 6.90847 91.787 7.22323 92.8827 7.86726C94.7595 8.92774 94.7549 10.8615 94.7519 12.4159H94.7534ZM91.5768 17.1C90.831 17.1081 87.2339 17.1695 85.7975 17.4971L85.6824 17.5246C84.0711 17.9087 82.7973 18.2106 82.782 20.7609C82.7851 23.9649 85.0839 24.2538 87.438 24.2716V24.4169V24.2716C88.9112 24.2716 90.3015 24.0505 91.5722 23.6098V17.1H91.5768ZM142.951 6.90847C135.538 6.92138 134.909 12.1221 134.902 16.9967C134.909 21.8553 135.537 27.0366 142.951 27.0479C150.358 27.035 150.989 21.8666 151 16.9951C150.992 11.8945 150.364 6.91977 142.951 6.90686V6.90847ZM142.951 24.2038C138.454 24.1812 138.229 21.7181 138.198 16.9984C138.229 12.2561 138.454 9.77838 142.949 9.7574C147.445 9.77838 147.673 12.2561 147.703 16.9967C147.673 21.7164 147.445 24.1796 142.951 24.2038V24.2038ZM129.646 26.3312L129.454 26.3829C128.418 26.6637 126.998 27.0479 124.509 27.0479H124.503C117.64 27.035 116.296 23.3402 116.288 16.9596C116.295 9.64441 118.468 6.91977 124.299 6.91009C126.358 6.91009 127.778 7.19579 128.795 7.45889L128.789 1.56411C128.782 1.30585 128.889 0.966883 129.461 0.850666L131.285 0.353516H131.384C131.803 0.364814 131.952 0.761889 131.952 1.10085V23.2466C131.98 24.6477 131.825 25.8454 129.646 26.3344V26.3312ZM128.791 10.2933C128.183 10.1286 126.484 9.71866 124.571 9.71866C121.06 9.75579 119.583 10.7743 119.549 16.9984C119.591 23.8342 121.495 24.2054 124.603 24.2377V24.383V24.2377C126.536 24.2377 128.197 23.8067 128.789 23.6356V10.2933H128.791ZM112.418 26.5846H110.792C110.351 26.5846 110.024 26.2328 110.024 25.7663V12.6273C109.994 10.4063 109.369 9.78645 107.128 9.75417C104.593 9.75417 102.026 10.4353 101.18 10.6807V25.7679C101.18 26.2408 100.873 26.5863 100.448 26.5863H98.7833C98.3459 26.5863 98.016 26.2344 98.016 25.7695V11.0326C97.9929 9.67024 98.1111 8.72759 99.9296 8.09808C101.668 7.45727 104.994 6.91331 107.196 6.9117C111.385 6.91816 113.173 8.53389 113.181 12.3126V25.7711C113.181 26.236 112.851 26.5879 112.414 26.5879L112.418 26.5846ZM75.5065 26.9397C76.4456 26.9188 77.1362 26.7235 77.4094 26.3974C77.5045 26.2844 77.5475 26.1488 77.5367 26.0181C77.5306 25.9083 77.5306 25.9083 77.2758 24.6235L77.2682 24.5912C77.2129 24.2571 76.9919 24.1037 76.8047 24.1037H76.7771C76.7771 24.1037 76.5423 24.0989 76.309 24.0989C75.64 24.0763 75.086 23.9698 75.0752 22.9303V1.09763C75.0752 0.736063 74.8696 0.3632 74.4767 0.35513H74.3586L72.5324 0.855508C72.2224 0.887791 71.8971 1.12507 71.9124 1.56249V22.9981C71.917 25.5355 73.1938 26.9365 75.5065 26.9414V26.9397ZM49.7282 26.5846H36.6504C36.213 26.5846 35.8831 26.2328 35.8831 25.7663V24.0618C35.8754 23.6421 35.9997 23.4597 36.2422 23.1385L46.6514 10.2174H36.4509C36.0135 10.2174 35.6836 9.86232 35.6836 9.39745V8.19009C35.6836 7.72199 36.0151 7.37173 36.4509 7.37173H49.6638C50.0981 7.37173 50.4265 7.7236 50.428 8.19009V9.93011C50.4357 10.2449 50.336 10.5112 50.0981 10.7921L39.6628 23.7406H49.7298C50.1656 23.7406 50.494 24.0924 50.4971 24.5589V25.7695C50.494 26.2328 50.1656 26.5846 49.7298 26.5846H49.7282Z" fill="#72A2B3"/>
<path fill-rule="evenodd" clip-rule="evenodd" d="M6.0586 32C4.94908 32 4.33217 31.7224 4.00224 31.5206C3.54646 31.2397 2.70703 30.5247 1.95355 28.4102C0.745815 25.0189 0.030692 20.8771 0 16.0121V15.996C0.030692 11.1213 0.745815 6.98108 1.95355 3.5882C2.7055 1.47531 3.54493 0.758638 4.00531 0.479395C4.33064 0.274401 4.94601 0 6.054 0C6.47754 0 6.97475 0.0403531 7.55176 0.138815C10.9064 0.719899 14.6217 2.12903 18.5855 4.53407L18.5978 4.54053C22.5295 7.00368 25.5311 9.73316 27.678 12.5466C29.0177 14.3027 29.1773 15.4359 29.1773 15.9976C29.1773 16.5593 29.0177 17.6956 27.678 19.4486C25.5296 22.262 22.5295 24.9931 18.5978 27.4546L18.5825 27.4643C14.6232 29.8694 10.9064 31.2785 7.55176 31.858C6.97322 31.9596 6.47754 31.9984 6.05706 31.9984" fill="#72A2B3"/>
</svg>
