<svg width="72" height="72" viewBox="0 0 72 72" fill="none" xmlns="http://www.w3.org/2000/svg">
<g clip-path="url(#clip0_4390_24350)">
<path d="M34.0107 10.7055H38.1791C38.6528 10.7055 39.0317 10.3265 39.0317 9.85286C39.0317 9.37917 38.6528 9.00023 38.1791 9.00023H34.0107V10.7055ZM34.0107 14.6844H38.2738C38.8423 14.6844 39.2212 14.3055 39.2212 13.7371C39.2212 13.1686 38.8423 12.7897 38.2738 12.7897H34.0107V14.6844ZM40.737 11.6529C41.3054 12.2213 41.6844 12.9792 41.6844 13.8318C41.6844 15.5371 40.3581 16.8634 38.6528 16.8634H31.737V6.91602H38.5581C40.1686 6.91602 41.4949 8.24233 41.4949 9.85286C41.4002 10.516 41.1159 11.1792 40.737 11.6529ZM42.3475 28.7055H39.7896L39.0317 27.0002H33.4423L32.6844 28.7055H30.1265L35.0528 18.7581H37.3265L42.3475 28.7055ZM36.1896 21.316L34.4844 24.916H37.8949L36.1896 21.316ZM39.6002 30.8844H42.4423L37.4212 37.3265V40.8318H35.0528V37.3265L30.0317 30.8844H32.8738L36.2844 35.4318L39.6002 30.8844ZM52.7686 30.8844V33.0634H46.137V34.7687H52.5791V36.9476H46.137V38.8423H52.7686V41.0213H43.7686V30.8844H52.7686ZM60.0633 37.0423H58.2633V40.8318H55.8949V30.8844H61.9581C63.6633 30.8844 64.9896 32.3055 64.9896 34.0108C64.9896 35.4318 64.0423 36.5687 62.8107 36.9476L65.7475 40.8318H62.9054L60.0633 37.0423ZM61.7686 32.9687H58.3581V34.8634H61.7686C62.337 34.8634 62.7159 34.3897 62.7159 33.916C62.7159 33.4423 62.2423 32.9687 61.7686 32.9687ZM31.0738 40.8318H28.516L27.7581 39.1265H22.1686L21.4107 40.8318H18.8528L23.8738 30.8844H26.1475L31.0738 40.8318ZM24.916 33.4423L23.2107 37.0423H26.716L24.916 33.4423ZM9.8528 34.6739H14.0212C14.4949 34.6739 14.8738 34.295 14.8738 33.8213C14.8738 33.3476 14.4949 32.9687 14.0212 32.9687H9.8528V34.6739ZM9.8528 38.6529H14.116C14.6844 38.6529 15.0633 38.2739 15.0633 37.7055C15.0633 37.1371 14.6844 36.7581 14.116 36.7581H9.8528V38.6529ZM16.5791 35.6213C17.1475 36.1897 17.5265 36.9476 17.5265 37.8002C17.5265 39.5055 16.2002 40.8318 14.4949 40.8318H7.48438V30.8844H14.3054C15.916 30.8844 17.2423 32.2108 17.2423 33.8213C17.2423 34.4844 16.9581 35.1476 16.5791 35.6213ZM40.737 42.916V45.095H34.1054V46.8002H40.5475V48.9792H34.1054V50.8739H40.737V53.0529H31.737V42.916H40.737ZM39.0317 58.3581C39.0317 57.7897 38.6528 57.4108 38.0844 57.4108H34.0107V59.3055H38.0844C38.6528 59.3055 39.0317 58.9265 39.0317 58.3581ZM31.6423 65.2739V55.3266H38.2738C39.9791 55.3266 41.3054 56.7476 41.3054 58.4529C41.3054 59.7792 40.5475 60.8213 39.4107 61.295L42.4423 65.2739H39.6002L36.7581 61.4844H34.0107V65.2739H31.6423V65.2739Z" fill="#72A2B3"/>
<path d="M72.0947 33.7263C70.9579 14.9684 55.3263 0 36.1894 0C17.0526 0 1.42102 14.9684 0.28418 33.7263C0.28418 34.4842 0.378917 35.2421 0.473653 36C1.23155 42.2526 3.59997 48.0316 7.19997 52.8632C13.7368 61.7684 24.2526 67.5474 36.1894 67.5474C19.5158 67.5474 5.87365 54.5684 4.73681 38.2737C4.64207 37.5158 4.64207 36.7579 4.64207 36C4.64207 35.2421 4.64207 34.4842 4.73681 33.7263C5.87365 17.4316 19.5158 4.45263 36.1894 4.45263C48.1263 4.45263 58.6421 10.2316 65.1789 19.1368C68.7789 23.9684 71.1473 29.7474 71.9052 36C72 36.7579 72.0947 37.5158 72.0947 38.1789C72.0947 37.421 72.1894 36.6632 72.1894 35.9053C72.1894 35.2421 72.1894 34.4842 72.0947 33.7263Z" fill="#72A2B3"/>
<path d="M0.28419 38.2737C1.42103 57.0316 17.0526 72 36.1895 72C55.3263 72 70.9579 57.0316 72.0947 38.2737C72.0947 37.5158 72 36.7579 71.9052 36C71.1474 29.7474 68.7789 23.9684 65.1789 19.1368C58.6421 10.2316 48.1263 4.45264 36.1895 4.45264C52.8631 4.45264 66.5052 17.4316 67.6421 33.7263C67.7368 34.4842 67.7368 35.2421 67.7368 36C67.7368 36.7579 67.7368 37.5158 67.6421 38.2737C66.5052 54.6632 52.8631 67.5474 36.1895 67.5474C24.2526 67.5474 13.7368 61.7684 7.19998 52.8632C3.59998 48.0316 1.23156 42.2526 0.473664 36C0.378927 35.2421 0.28419 34.4842 0.28419 33.8211C0.28419 34.579 0.189453 35.3368 0.189453 36.0947C0.189453 36.7579 0.189453 37.5158 0.28419 38.2737Z" fill="#72A2B3"/>
</g>
<defs>
<clipPath id="clip0_4390_24350">
<rect width="72" height="72" fill="white"/>
</clipPath>
</defs>
</svg>
